<?xml version="1.0" encoding="UTF-8"?>
<svg id="_Режим_изоляции" data-name="Режим изоляции" xmlns="http://www.w3.org/2000/svg" viewBox="0 0 19.82 11.93">
  <defs>
    <style>
      .cls-1 {
        fill: #f6ff5f;
        stroke-width: 0px;
      }
    </style>
  </defs>
  <g>
    <path class="cls-1" d="M4.8,10.61s-.07,0-.11.05c-.01.02-.02.04-.01.07.03.05.06.05.1,0,.05-.02.11-.05.13-.13h-.02s-.06.07-.1,0Z"/>
    <path class="cls-1" d="M12.91,1.2c-.1-.01-.17.06-.25.11h.15s.06-.07.1-.11Z"/>
    <path class="cls-1" d="M8.7,10.63c.06.02.12.05.19.1.02-.02.06,0,.04-.08-.01-.01-.02-.03-.03-.05h-.23s.01.02.03.03Z"/>
    <path class="cls-1" d="M13.41.94c-.06-.01-.1,0-.13.08-.02.07-.07.15-.02.16.04.02.12.03.18-.08.06-.08.13-.18.17-.03,0,.03.04.02.07.02.08-.05.16-.05.23-.15.05-.08.1-.16.18-.08.02.03.06.03.09-.03.04-.1.05-.11.11-.06.09.04.21.03.3,0,.02,0,.01-.03.02-.04h-.83s-.01.01-.01.02c-.1.2-.22.23-.35.2Z"/>
    <path class="cls-1" d="M15.42,10.68s-.06.03-.06.08c0,.02.03.03.05.02.08-.02.16-.02.24-.07.04-.03.07-.07.08-.11h-.21s-.04.08-.09.08Z"/>
    <path class="cls-1" d="M7.58,10.65c.05.12.02.16.01.25-.02-.01-.04-.04-.06-.02-.05.08-.08,0-.14-.06,0,.16.09.16.15.19.02.02.04,0,.06-.01,0,.02,0,.04.02.07.01-.02.02-.05.03-.07,0,0,0,0,0,0,0,0,0-.01,0-.01.02-.07.02-.15,0-.28-.01-.05-.03-.07-.05-.09h-.02s0,.02,0,.05Z"/>
    <path class="cls-1" d="M12.89,11.11s-.03,0-.1-.01c.03.04.03.06.04.09h.23s-.07-.06-.18-.08Z"/>
    <path class="cls-1" d="M5.96,11.11c0-.07,0-.12-.05-.09-.04.02-.11.05-.14.14,0,.01,0,.02-.01.04h.2s0-.06,0-.08Z"/>
    <path class="cls-1" d="M13.55,11.13c.07-.18-.02-.06-.06-.04-.04.01-.07.06-.1.11h.15s.01-.04.02-.07Z"/>
    <path class="cls-1" d="M5.77.82c.04.06.07.15.17.07,0-.07-.04-.03-.06-.05-.03-.01-.05-.02-.04-.08.01-.03.04-.03.06-.02.07.07.13-.01.2-.01,0,0,0,0-.01,0h-.38s.03.07.06.09Z"/>
    <path class="cls-1" d="M18.74,11.11s-.04-.02-.07-.02-.08,0-.07.06c0,.03.03.03.05.05h.03s.05-.04.05-.08Z"/>
    <path class="cls-1" d="M4.01,1.28h0c-.08-.12-.17-.26-.29-.16,0,0-.03-.01-.04-.03-.11-.16-.19-.07-.31-.07.14.12.27.21.4.28,0,0-.02.01-.02.01h.31s-.03-.01-.04-.04Z"/>
    <path class="cls-1" d="M13.76,10.82c.07,0,.14-.1.2-.22h-.09c-.04.07-.08.15-.12.22Z"/>
    <path class="cls-1" d="M1.65,1.29c.02-.07.09-.07.12-.02.03.04.07.05.1.05h.21s0-.05-.02-.08c-.02-.06-.08-.05-.12-.06-.21-.06-.41.03-.62-.02-.06-.02-.1.02-.1.06,0,.09.06.05.09.07.06.05.14-.03.2.03h.11s.03,0,.04-.03Z"/>
    <path class="cls-1" d="M8.51.73h-.06s.04.02.06,0c0,0,0,0,0,0Z"/>
    <path class="cls-1" d="M7.69,1.32h.21s0-.03-.01-.04c-.02-.08-.07-.09-.13-.08-.13.03-.24,0-.35-.2-.05-.1-.16-.17-.24-.27h-.14c0,.07.01.16-.06.15-.13-.04-.27.06-.39-.07,0-.02-.02-.02-.04-.02.03.08-.03.19.05.23.09.03.21.04.3,0,.07-.05.07-.03.11.06.03.06.07.06.09.04.07-.08.13,0,.18.08.05.07.12.09.18.11h.12c.03-.07.07-.05.12,0Z"/>
    <path class="cls-1" d="M13.11,10.86s.02.07.07.1c.03,0,.07-.02.07-.07,0-.06-.05-.06-.07-.06-.03,0-.07-.02-.07.03Z"/>
    <path class="cls-1" d="M19.24,1.43s-.1,0-.12.07c.02.03.04.06.06.09.08,0,.16.01.23-.06.01-.02.03-.03.06-.03,0-.02-.02-.05-.02-.07-.07,0-.13,0-.2.01Z"/>
    <path class="cls-1" d="M17.8,1.28c-.08-.12-.17-.26-.29-.16,0,0-.03-.01-.04-.03-.11-.16-.19-.07-.31-.07.14.12.27.22.4.28,0,0-.02.01-.02.01h.31s-.03-.02-.04-.04Z"/>
    <path class="cls-1" d="M16.31,10.8c-.02-.09-.09-.12-.14-.13-.05-.03-.05.03-.05.1-.05.08,0,.16.07.21.08.05.16.05.24.07.02.01.05,0,.05-.02,0-.05-.03-.07-.06-.07-.08,0-.09-.07-.12-.15Z"/>
    <path class="cls-1" d="M15.55,11.1s.03-.06.01-.06c-.06-.02-.12.03-.18.07.05.07.11.06.17-.01Z"/>
    <path class="cls-1" d="M9.69,1.32c-.09-.09-.19-.19-.28-.28-.09-.07-.16-.15-.23-.24-.02-.03-.04-.05-.06-.07h-.18c.19.18.45.41.68.59h.08Z"/>
    <path class="cls-1" d="M11.22,1.32c.12-.07.45-.34.73-.59h-.14s-.03.04-.05.06c-.18.17-.37.35-.54.53Z"/>
    <path class="cls-1" d="M11.07,1.19s-.02-.08-.03-.08c-.04,0-.08.01-.14.08-.04.05-.08.09-.12.13h.16s.03-.04.05-.05c.03-.01.07-.03.07-.08Z"/>
    <path class="cls-1" d="M15.44,1.29c.02-.07.09-.07.12-.02.03.04.07.05.1.05h.21s0-.05-.02-.08c-.02-.06-.08-.05-.12-.06-.21-.05-.41.03-.62-.02-.06-.02-.09.02-.1.06,0,.09.06.05.09.07.06.05.13-.03.2.03h.11s.03,0,.03-.03Z"/>
    <path class="cls-1" d="M19.54,9.81c0,.77-.31,1.39-.69,1.39h-.16s0,.02-.01.02c-.01,0-.01-.01-.02-.02h-5.11c-.02.12-.04.26-.15.31-.06.02-.12.06-.19.1,0,0-.01,0-.02,0-.05.02-.1.02-.15,0-.06,0-.1-.05-.09-.13.01-.1-.04-.1-.12-.08.02-.07.03-.12.01-.19h-6.88c0,.06-.03.1-.08.14-.08.05-.16.05-.24.07-.02.01-.05,0-.05-.02,0-.05.03-.08.06-.08.07,0,.08-.05.1-.1H.97c-.38,0-.69-.62-.69-1.39V2.12C.28,1.35.59.73.97.73h4.75c-.04-.08-.09-.16-.16-.2-.04-.01-.12,0-.09-.09.02-.03.07-.01.12-.01.22.03.45.04.66-.05.05.04-.04.12.06.12.06,0,.12-.02.13.08,0,.11-.09.01-.12.05-.05.03-.13.1-.17.03-.08-.12-.11-.02-.18,0,.06.03.11.03.15.08h.95s0-.03,0-.03c.02-.05.07-.08.1-.02,0,.02.03.03.04.05h1.28s-.08-.01-.12-.01c-.1-.02-.19-.15-.28-.17-.1-.02-.18-.1-.28-.14-.06-.02-.1-.07-.07-.13.01-.14.1-.15.23-.04.11.1.21.2.34.19.06,0,.15.12.23.2.03.04.03.06.01.1h.42s-.1-.1-.14-.13c.16-.04.19-.03.32.13h2.7c.06-.05.12-.11.18-.19.18-.25.19-.25.38-.2-.09.1-.25.24-.42.39h1.82c.07-.11.2-.17.26-.3.03-.06.08-.03.09.01.02.07-.02.2.07.19.13-.04.27.06.4-.07,0-.02.02-.02.04-.02-.02.07,0,.14-.03.19h4.25c.25,0,.47.29.58.69.13,0,.26.02.38,0v-.2c0-.16-.02-.32-.04-.46-.02,0-.05.01-.08-.02-.02-.01-.05-.01-.06.02-.02.05,0,.06.03.08.02.02.07-.02.06.05-.1.08-.12-.01-.17-.07-.08-.09-.11-.25-.22-.3-.04-.01-.12,0-.09-.09.02-.03.07-.01.12-.01.1.01.2.02.31.02C19.57.18,19.42,0,19.24,0h-.12S19.06,0,19.03.01c-.03.02-.06.01-.07-.01h-.23s-.1.03-.15.06c-.06.04-.15,0-.15-.06h-4.87s.02.08.03.1c.02.08.02.12-.02.11-.04-.04-.08-.07-.13-.1-.02.02-.04.03-.07.05-.09.05-.17.12-.27.14-.09.03-.18.15-.28.17-.06,0-.13.06-.17.02-.02-.04-.02-.06.01-.11.07-.08.16-.2.23-.2.12.01.22-.08.32-.17h-6.11c.02.06.05.12.1.14.03.01,0,.06-.02.06-.05.02-.11.02-.18-.01-.13-.05-.25-.13-.39-.13-.17,0-.34-.03-.51-.06h-.79s-.05,0-.08.01c-.03.02-.06.01-.07-.01h-.23s-.11.03-.15.06c-.06.04-.14,0-.14-.06H.58C.37,0,.19.25.09.61c.06-.05.12-.1.15-.18.03-.06.08-.03.1.01.02.07-.02.2.06.18.13-.04.27.06.39-.07,0-.02.02-.02.04-.02-.03.08.03.2-.05.23-.09.03-.21.04-.3,0-.07-.05-.07-.04-.12.06-.03.06-.07.06-.09.03-.07-.08-.13,0-.18.08-.03.04-.06.06-.09.08,0,.07-.02.13-.02.2v.21c.05,0,.11-.02.16-.05-.02.07-.09.12-.16.17v9.14c0,.68.26,1.23.58,1.23h2.51c.02-.06.02-.12-.06-.21.06.02.08.02.09.02.16.03.19.05.21.19h2.12s0-.01.02,0c0,0,0,0,0,0h1.04s0-.02,0-.02c.01,0,.02.02.03.02h2.27c-.05-.08-.09-.15-.07-.2.02-.06.09.05.16.13.02.02.04.05.06.07h5.5c-.05-.06-.07-.17-.02-.35.02-.07.04-.12.07-.13.02-.02,0,.03,0,.08-.06.18.03.19-.04.41h.68c.09-.02.17-.05.27-.07-.03.04-.06.05-.08.07h.52c.08-.05.15-.08.23-.14.03-.01.05,0,.05.03,0,.05-.02.09-.05.11h.23c-.06-.05-.07-.11-.1-.18-.03-.08,0-.08.04-.08.02,0,.05-.03.05-.05,0-.09.05-.03.08-.03.05.01.04.07.05.1.02.05.01.14.07.14.07,0,.05-.07.05-.12-.01-.09,0-.15.05-.15.07-.02.13.08.19.13.07.05,0,.07,0,.14-.01,0-.01.06,0,.09,0,0,0,0,0,.01h1.44s0,0,0-.01c.02-.11.09-.02.13-.03.02-.04.05-.06.08-.06.02,0,.05,0,.06.02.02.04,0,.05-.02.07,0,0,0,.01,0,.01h.76c.32,0,.58-.55.58-1.23V2.37s-.02,0-.02-.03c-.01-.03,0-.04.02-.04v-.75s-.1-.02-.14.03c-.04.05-.1.08-.15-.03-.01-.04-.04-.05-.07-.05.05.19.08.4.08.62v7.69ZM14.88.23c.1,0,0-.08.05-.12.21.1.44.08.66.05.05,0,.11-.02.12.01.02.09-.05.08-.09.09-.11.05-.14.2-.23.3-.05.05-.07.15-.17.07,0-.07.04-.03.06-.06.02-.01.05-.02.03-.07,0-.03-.04-.03-.06-.02-.07.07-.13-.01-.19-.01.04-.06.1-.05.16-.09-.07-.02-.1-.12-.18,0-.04.07-.12,0-.17-.03-.04-.03-.13.06-.12-.05,0-.11.07-.08.13-.08ZM1.09.23c.1,0,0-.08.06-.12.21.1.44.08.66.05.05,0,.1-.02.12.01.02.09-.05.08-.09.09-.11.05-.14.2-.23.29-.04.05-.07.16-.17.07,0-.07.04-.03.06-.06.03-.01.05-.02.03-.07,0-.03-.05-.03-.06-.02-.07.07-.13-.01-.2-.01.05-.06.1-.05.16-.09-.07-.02-.1-.12-.18,0-.04.07-.12,0-.17-.03-.04-.03-.13.06-.12-.05,0-.11.07-.08.13-.08ZM3.42,11.57s-.07-.05-.07-.1c0-.05.04-.03.07-.03.03,0,.08,0,.07.07,0,.05-.04.06-.07.06ZM5.8,11.72c-.06.07-.11.08-.17.02.06-.05.13-.09.18-.08.02,0,0,.06-.02.07ZM6.68,11.66c-.08-.02-.16-.02-.24-.07-.07-.05-.12-.15-.07-.22,0-.07,0-.13.05-.09.04.01.11.05.14.13.02.08.03.15.12.15.02,0,.06.03.06.08,0,.02-.03.03-.05.02ZM8.91,11.83s-.07-.01-.07-.07c0-.06.05-.06.07-.06s.07-.02.07.03c0,.05-.02.08-.07.1ZM9.2,11.9c-.09-.12-.23-.08-.28-.39.08.02.16.17.24.25.03.03.06.08.06.13,0,.03,0,.05-.03.01ZM13.54,11.72s-.01.07-.02.1c-.03.1-.08.1-.18.03.1-.07.15-.13.03-.19-.01-.03-.04-.04-.02-.07.01-.03.03-.03.06-.03.02.01.05.03.08.07.05.01.11-.08.13.04.02.06-.06.03-.08.06ZM15.63,11.5c-.03.07-.03.14-.11.18-.12.03-.23.05-.35.1-.08.03-.15.01-.12-.11,0-.04,0-.09,0-.1-.01-.05-.07-.08,0-.13.06-.05.12-.15.19-.13.04,0,.06.07.05.15,0,.05-.01.12.05.11.07,0,.05-.08.07-.13.01-.03,0-.08.05-.1.03,0,.07-.06.08.04,0,.01.03.05.05.05.04,0,.07,0,.04.08ZM16.29,11.36s-.03-.07-.01-.07c.06-.01.12.04.18.08-.06.07-.11.05-.17-.01ZM19.02,11.64c-.07-.02-.13-.02-.11.08.01.08-.02.13-.09.13-.07.04-.15.05-.2-.02-.03-.04-.03-.12.04-.1.06,0,.07-.02.07-.08.02-.23.03-.23.22-.27.01,0,.03,0,.09-.01-.11.12-.06.17-.03.28Z"/>
    <path class="cls-1" d="M13.11,11.38c0,.06.02.08.07.08,0,0,0,0,0,0,.07-.08.13-.19.2-.27h-.32s.03.08.04.19Z"/>
    <polygon class="cls-1" points="19.74 .65 19.73 .65 19.74 .65 19.74 .65"/>
  </g>
  <g>
    <path class="cls-1" d="M19.36,2.04c0-.14-.02-.27-.04-.39-.02,0-.05.01-.07-.01-.02-.01-.05-.01-.06.01-.02.04.01.05.03.07.02.01.07-.02.06.04-.05.03-.07.03-.1.02.04.12.06.27.07.42.04,0,.07,0,.11,0v-.16h0Z"/>
    <path class="cls-1" d="M14.93,10.77c-.06.02-.11,0-.11-.06h-.54s.02.09-.02.19h.65c.08-.01.17-.04.25-.06-.03.03-.05.04-.08.06h.5c.07-.04.15-.06.22-.11.02-.01.05,0,.05.02,0,.04-.02.07-.05.09h.22c-.06-.04-.07-.09-.09-.15-.01-.02,0-.04,0-.04h-.73c-.09.02-.18.03-.27.06Z"/>
    <path class="cls-1" d="M18.68,10.71h-.17s-.01,0,0,.02c.01.06-.02.1-.08.1-.07.03-.14.04-.19-.02-.03-.03-.03-.1.04-.08.03,0,.05-.01.06-.02h-1.83s0,.06,0,.11c0,0,0,.05,0,.08,0,0,0,0,0,0h1.37s0,0,0,0c.02-.09.08-.02.12-.03.02-.03.05-.04.07-.05.02,0,.05,0,.06.02.02.03,0,.04-.02.06,0,0,0,0,0,0h.73c.31,0,.55-.45.55-1.02V2.99s-.02,0-.03-.02c-.01-.03,0-.04.03-.04v-.62s-.07,0-.1.02v7.34c0,.57-.26,1.04-.58,1.04Z"/>
    <path class="cls-1" d="M1.51,1.22c.05,0,0-.06.04-.09.2.08.41.06.62.04.05,0,.1-.01.11.01,0,.03,0,.03-.01.04h5.56s.08-.05.15,0h4.68s.06-.05.09-.05c.12.01.21-.06.3-.14h-5.82s.04.1.09.12c.03.01,0,.05-.02.05-.05.01-.11.01-.17-.01-.12-.04-.24-.11-.37-.11-.16-.01-.32-.02-.49-.05h-.75s-.05,0-.08.01c-.03.02-.05.01-.07-.01h-.22s-.1.03-.14.05c-.06.03-.14,0-.14-.05H1.01c-.2,0-.37.21-.47.5.06-.04.11-.08.14-.15.03-.05.08-.02.09.01,0,.02,0,.05,0,.06.1-.14.22-.24.36-.24h.37Z"/>
    <path class="cls-1" d="M13.37,10.73s0,.05-.02.08c-.02.08-.07.08-.17.03.08-.04.11-.09.07-.13h-4.1s.03.03.05.05c.04.02.06.07.06.1,0,.03,0,.05-.02.02-.06-.07-.12-.1-.18-.17h-3.06s0,.02,0,.02c-.06.06-.11.07-.16.01.03-.02.06-.02.08-.03H1.14c-.32,0-.58-.47-.58-1.04V2.25s0,0,0-.02c-.03.03-.06.06-.11.08v7.57c0,.57.25,1.02.55,1.02h2.4c.02-.05.03-.1-.05-.17.06.01.07.01.09.01.15.03.18.04.2.16h2.02s0,0,.01,0c0,0,0,0,0,0h1s0-.01,0-.01c0,0,.02.01.03.01h2.16c-.04-.06-.09-.12-.07-.17.02-.05.09.04.15.1.02.02.04.04.06.06h5.25s-.04-.1-.03-.19h-.8s-.04,0-.05.02ZM8.96,10.82s-.06-.02-.07-.05c0-.06.04-.06.07-.06s.07-.01.06.02c0,.04-.02.07-.06.08Z"/>
    <path class="cls-1" d="M.56,1.82s-.05.04-.08.06c0,.06-.02.11-.02.17v.18s.07-.02.11-.03c0-.17.04-.32.08-.45-.03.01-.06.04-.09.08Z"/>
    <path class="cls-1" d="M14.7,1.13c.2.08.42.06.63.04.04,0,.1-.01.11.01,0,.03,0,.03-.01.04h3.24c.11,0,.21.07.3.17.08,0,.17.02.25.01-.1-.22-.25-.36-.42-.36h-.12s-.05,0-.08.01c-.03.02-.05.01-.07-.01h-.22s-.1.03-.14.05c-.06.03-.14,0-.14-.05h-4.65s.02.07.03.08c.02.07.02.1-.02.09-.04-.03-.08-.06-.12-.09-.02.01-.03.03-.06.04-.05.02-.1.04-.14.06h1.57c.06,0,0-.07.04-.09Z"/>
    <path class="cls-1" d="M16.21,10.81c.06,0,.04-.06.05-.1,0,0,0,0,0,0h-.12s0,.11.07.11Z"/>
    <polygon class="cls-1" points="19.29 1.56 19.28 1.57 19.29 1.57 19.29 1.56"/>
    <path class="cls-1" d="M14.3,10.57s0,0,0-.01h-.03s-.02.02-.03.05c-.01.05-.01.07-.01.1h.06s-.01-.08.02-.14Z"/>
    <path class="cls-1" d="M14.81,1.36c.07-.1.11-.02.17,0-.01,0-.02,0-.03.01h.29c.03-.05.06-.09.12-.12.03,0,.06-.01.08-.04h-.78c-.06,0-.12-.01-.12.08,0,.09.08.01.12.04.02.01.05.03.08.04h.01s.05,0,.07-.01Z"/>
    <path class="cls-1" d="M16.31,10.59s-.05.05-.05.11h.23s0,0,0,0c-.05-.04-.11-.13-.18-.11Z"/>
    <path class="cls-1" d="M6.6,10.62c.07.03.15.03.23.06.02,0,.05,0,.05-.02,0-.03-.03-.06-.06-.06-.04,0-.06-.02-.08-.04h-.2s.03.05.06.07Z"/>
    <path class="cls-1" d="M9.05,10.71h.1c-.06-.06-.12-.14-.18-.15h0c.02.09.05.12.08.15Z"/>
    <path class="cls-1" d="M3.72,10.6s.06-.01.07-.05h-.11s.01.04.04.05Z"/>
    <path class="cls-1" d="M16.09,10.62s-.07-.05-.07.03c0,.01-.03.04-.05.04-.02,0-.04,0-.04.02h.22s0,0,0,0c0-.02,0-.07-.05-.08Z"/>
    <path class="cls-1" d="M12.26,1.31c-.14-.03-.18-.04-.27.06h.19s.05-.04.07-.06Z"/>
    <path class="cls-1" d="M19.18,2.25v.1s.03-.01.04-.02c.01-.01.02,0,.03,0v-.08s0-.03,0-.05h-.07s0,.03,0,.05Z"/>
    <path class="cls-1" d="M7.88,1.37h0s.42,0,.42,0c-.1-.01-.19-.07-.28-.14-.01-.01-.02,0-.03-.01h-.15s-.03.02-.03.04c-.03.06.01.09.07.11Z"/>
    <path class="cls-1" d="M13.45,10.68c-.02-.1-.08-.02-.12-.03-.02-.03-.05-.05-.07-.06-.02,0-.05,0-.06.03-.02.03,0,.03.02.06.02.01.03.02.04.03h.17s.03,0,.02-.03Z"/>
    <path class="cls-1" d="M.74,1.74c.03-.08.07-.14.12-.2,0,0,0,0-.01,0-.05,0-.06-.04-.06-.09-.05.08-.1.17-.13.28.03-.01.05-.02.08.01h0Z"/>
    <path class="cls-1" d="M12.54,1.37h.24c.06-.04.12-.08.19-.1.05-.01.08-.03.12-.06h-.42s-.09.08-.13.12c-.01.02,0,.03,0,.04Z"/>
    <path class="cls-1" d="M5.91,10.71h.08s.02-.03,0-.03c-.03,0-.06.02-.09.03Z"/>
    <path class="cls-1" d="M18.82,1.39s0,.03.01.03c.02.01.05.02.07.04,0,0,0,0,.01,0,.11.04.13.16.22.24.02.02.04.05.06.07-.05-.17-.12-.31-.21-.4-.01,0-.02,0-.04,0-.04,0-.1-.01-.11.01Z"/>
    <path class="cls-1" d="M15.09,10.59s-.05-.02-.05-.04h-.25s.02.02.02.04c0,.01,0,.06,0,.09,0,.02,0,.02,0,.03h.38s.05-.01.07-.02c.06-.03.07-.08.09-.14h-.22s-.02.04-.05.04Z"/>
    <path class="cls-1" d="M.57,2.19s0,.03,0,.05c.02-.01.04-.04.05-.06-.02,0-.03,0-.04.01Z"/>
    <path class="cls-1" d="M12.89,10.62c.05.02.1.02.14,0,0,0,.01,0,.02,0,.06-.03.12-.06.17-.07h-.41s.03.07.07.07Z"/>
    <path class="cls-1" d="M6.41,1.33c-.06.03-.11.03-.17.04h.18s0-.03-.01-.04Z"/>
    <path class="cls-1" d="M18.33,10.66s0,.04-.01.05h.18c0-.05.04-.06.1-.05-.02-.04-.03-.07-.03-.1h-.22s-.01.06-.02.1Z"/>
    <path class="cls-1" d="M1.65,1.36c.08-.1.11-.02.17,0-.01,0-.02,0-.03.01h.29c.03-.05.06-.09.12-.12.03,0,.06-.01.08-.04h-.78c-.05,0-.12-.01-.12.08,0,.09.08.01.12.04.02.01.05.03.08.04h.01s.05,0,.07-.01Z"/>
  </g>
  <g>
    <g>
      <path class="cls-1" d="M5.42,2.94c0-.05,0-.09,0-.11,0-.08-.02-.14-.03-.21-.02.05-.03.1-.09.12.05-.07-.11-.15-.15-.23,0-.03-.01-.07,0-.09.01-.02.06-.03.13-.02.06.02.08.07.1.12,0-.04,0-.09-.02-.13-.02-.07-.06-.12-.09-.19-.01,0-.04-.01-.04-.01-.06,0-.11,0-.15-.02-.02-.02-.07-.05-.03-.07.03-.02.1-.01.17,0,0-.01-.01-.03-.02-.05-.07-.09-.17-.17-.29-.22-.12-.05-.26-.07-.43-.07-.15,0-.28.02-.39.06-.11.04-.21.1-.28.17-.07.07-.13.17-.18.28-.05.11-.08.23-.1.36-.02.12-.03.27-.03.43v.46s.02,0,.03,0c.07,0,.12-.01.18-.03.06-.02.11-.06.18-.02.05.04.08.06-.02.11-.11.06-.24.09-.37.11v.38c0,.16,0,.31.03.43.02.12.05.24.1.35.04.11.11.2.18.28.07.07.17.14.28.17.11.05.24.07.39.07.17,0,.32-.03.45-.09.12-.06.22-.14.29-.24.07-.1.12-.23.16-.37.03-.14.05-.3.05-.48v-.13h-.51v.13c0,.08,0,.16,0,.23,0,.06-.02.13-.03.2-.02.07-.04.12-.07.18-.03.05-.07.08-.13.11-.05.03-.12.04-.2.04s-.14-.02-.2-.04-.1-.06-.14-.11c-.03-.05-.06-.1-.08-.17-.02-.07-.03-.14-.04-.2,0-.07-.01-.15-.01-.23v-.84s-.04.04-.09.05c-.05.02-.09,0-.09-.01.03-.04.07-.08.17-.11h0v-.36c0-.1,0-.18,0-.25,0-.07.02-.13.03-.2.02-.07.04-.13.08-.17.03-.04.08-.08.14-.11.06-.02.13-.04.21-.04.07,0,.12,0,.17.02.05.01.09.04.12.07.03.03.06.06.08.1.02.03.04.08.05.13.01.05.02.1.02.15,0,.05,0,.1,0,.18v.11h.51ZM3.82,3.07s-.04.05-.08.08c-.09-.02-.13-.05-.04-.09.1-.03.19-.05.12.01Z"/>
      <path class="cls-1" d="M6.67,1.76c-.18,0-.33.03-.46.08-.13.05-.23.13-.3.23-.08.1-.13.22-.16.36-.03.13-.05.3-.05.48v1.29c0,.19.02.35.05.49.03.12.08.23.14.32.18-.05.36-.1.53-.1-.05-.02-.09-.06-.12-.1-.07-.11-.1-.27-.1-.47v-1.54c0-.21.03-.36.1-.46.07-.1.19-.15.37-.15s.3.05.37.15c.07.1.1.26.1.46v1.54c0,.21-.03.36-.1.47-.05.08-.14.12-.25.14-.01,0,0,.01-.02.02-.21.11-.47.11-.71.17.23-.08.03-.07.04-.11-.1.03-.1.06-.11.08,0,0,0,0-.01.01.07.07.14.14.24.19.13.05.28.08.46.08s.33-.03.46-.08c.13-.05.23-.13.3-.24.07-.11.13-.23.16-.37.03-.14.05-.31.05-.49v-1.29c0-.37-.08-.66-.23-.86-.15-.2-.4-.3-.75-.3Z"/>
      <g>
        <path class="cls-1" d="M8.58,3.77h0s-.42-.2-.48-.2c0,0-.01,0-.02,0v.21s.03-.01.07,0c.19.06.2.3.02.34.04-.05-.04-.11-.09-.16v1.4h.51v-1.41c-.13-.04-.15-.08-.02-.17Z"/>
        <path class="cls-1" d="M9.79,1.8l-.34,1.82s.11.1.19.16c-.1-.02-.16-.05-.21-.07l-.15.81-.51-2.71h-.7v1.68s.01,0,.02,0c.16.01.32.05.49.06v-.99l.18.98c.1,0,.2.01.29-.02.03.1.1.17-.22.1-.02,0-.03,0-.05,0l.06.32s.06.06.07.09c-.02,0-.04-.01-.06-.01l.24,1.35h.38l.51-2.8v2.8h.51V1.8h-.7Z"/>
      </g>
      <path class="cls-1" d="M11.37,4.02c-.05.01-.09,0-.09-.02.02-.04.07-.08.17-.11.02,0,.05,0,.08,0V1.8h-.51v2.31s.09,0,.14-.02c.06-.02.11-.06.18-.02.06.03.08.05-.02.11-.09.05-.19.07-.3.09v1.08h.51v-1.42s-.08.07-.16.1ZM11.27,3.67s-.04.05-.08.08c-.09-.02-.14-.05-.04-.09.1-.03.19-.05.12.01Z"/>
      <path class="cls-1" d="M13.8,2.82s0-.02.05-.03v-.99h-.51v.94c.1,0,.19.01.28-.02.03.1.1.17-.22.1-.02,0-.04,0-.06,0v.11s.03.01.02.02c-.02,0-.01.01-.02.02v.11c.05.05.13.1.14.15-.06-.01-.09-.02-.14-.03v.8l-.46-1.14c-.1-.03-.18-.06-.21-.06-.06,0-.11,0-.15-.02-.02-.02-.07-.05-.03-.07.04-.02.11,0,.18,0,.05,0,.11.01.16.02l-.37-.92h-.38v3.55h.51v-2.36.03s0,0,0-.01c.01-.02.06-.03.13-.02.19.06.2.3.02.34.04-.05-.04-.11-.1-.16l.84,2.19h.36v-2.5s-.03-.01-.05-.02Z"/>
      <g>
        <path class="cls-1" d="M14.55,5.06c.2-.07.4-.11.6-.12-.01,0-.02,0-.03,0-.06-.02-.1-.06-.14-.1-.03-.04-.07-.09-.09-.14-.02-.05-.04-.11-.06-.18-.01-.07-.02-.14-.03-.2,0-.07,0-.15,0-.23v-1.14c0-.11,0-.22.02-.3.02-.09.04-.17.08-.24.04-.07.09-.13.16-.16.07-.04.16-.06.26-.06.08,0,.14.01.2.03.05.02.1.05.13.09.03.04.06.09.08.14.02.06.03.12.04.18,0,.06.01.13.01.22v.1h.5s0-.09,0-.1c0-.17-.03-.32-.07-.44-.04-.13-.09-.24-.17-.33-.07-.1-.17-.17-.3-.22-.12-.05-.26-.07-.43-.07-.69,0-1.03.44-1.03,1.31v.89c0,.18,0,.33.02.47.02.14.05.26.09.39.04.1.09.17.14.24Z"/>
        <path class="cls-1" d="M15.3,3.95h.5v.12c0,.1,0,.19-.01.27,0,.08-.02.16-.04.24-.01.05-.03.08-.05.11.05,0,.09,0,.07.02-.01.02-.06.03-.1.06,0,0,0,.01,0,.02-.02.03-.07.06-.1.09.05.03.07.05-.02.11-.21.1-.47.11-.71.17.23-.07.03-.07.05-.11-.1.03-.1.06-.11.08,0,.03-.03.05-.07.06.06.05.11.09.19.12.12.05.26.07.42.07.24,0,.41-.14.51-.42l.13.38h.38v-1.77h-1.01v.38h0Z"/>
      </g>
    </g>
    <g>
      <path class="cls-1" d="M6.76,8.27s-.01-.02.04-.03l-.49-.39c-.17-.14-.25-.3-.25-.5,0-.12.03-.22.1-.28.06-.07.16-.1.28-.1.15,0,.27.05.35.15.08.1.13.23.15.39,0,.04,0,.08,0,.1l.51-.13s-.01-.09-.02-.11c-.04-.26-.14-.46-.31-.6-.17-.14-.4-.21-.69-.21-.27,0-.48.08-.64.24-.16.15-.24.36-.24.62,0,.18.04.34.1.48.06.11.14.2.23.29.23.03.48.06.69,0,.03.1.1.17-.22.1-.08-.01-.18-.03-.2.01-.02.02-.06.06.09.08.04,0,.09.02.08.03-.1.04-.08.08-.03.13l.27.22c.06.05.11.08.14.12.03.03.07.08.11.13.04.06.07.11.09.18.02.06.03.13.03.2,0,.26-.13.38-.38.38-.31,0-.48-.25-.51-.76l-.51.13c.02.32.11.58.28.77.17.19.41.28.73.28.27,0,.49-.07.65-.22.16-.15.24-.35.24-.61,0-.38-.17-.71-.51-.98-.07-.03-.12-.06-.19-.09Z"/>
      <path class="cls-1" d="M9.4,7.92c-.06,0-.11,0-.15-.02-.02-.02-.07-.05-.03-.07.04-.02.11-.01.18,0,.1.01.21.02.32.04v-.17c0-.38-.08-.66-.23-.86-.15-.2-.4-.3-.75-.3-.18,0-.33.03-.46.08-.13.06-.23.13-.31.23-.08.1-.13.22-.16.36-.03.14-.05.3-.05.49v1.28c0,.1.02.17.03.26.03,0,.07,0,.1-.02.06-.02.11-.06.18-.02.06.04.08.05-.02.11-.08.04-.16.05-.25.07,0,.03,0,.06.01.09.03.14.09.27.16.37.08.1.18.18.31.24.13.05.28.08.46.08s.33-.03.45-.08c.13-.05.23-.13.3-.23.07-.11.13-.23.17-.37.03-.14.05-.31.05-.49v-.96c-.12-.06-.28-.11-.31-.11ZM8,8.81s-.05.04-.08.08c-.09-.02-.14-.05-.04-.09.1-.04.19-.05.12.01ZM9.21,9.11c0,.21-.03.37-.1.47-.07.11-.19.16-.37.16s-.3-.05-.37-.16c-.07-.1-.1-.26-.1-.47v-.06s-.08.07-.17.1c-.05.02-.09,0-.09-.01.03-.04.07-.09.17-.11.03,0,.06,0,.08,0v-1.45c0-.2.03-.35.1-.46.07-.1.19-.15.37-.15s.3.05.37.15c.07.1.1.25.1.46,0,0,0,1.54,0,1.54ZM9.47,8.46c.05-.07-.11-.15-.15-.23,0-.03-.01-.07,0-.09.01-.02.06-.03.13-.02.19.06.2.3.02.34Z"/>
      <path class="cls-1" d="M11.93,8.36c-.06-.02.03-.03.12-.05v-.61c0-.38-.08-.66-.23-.86-.15-.2-.4-.3-.75-.3-.18,0-.33.03-.46.08-.13.06-.23.13-.3.23-.07.1-.13.22-.16.36-.03.14-.05.3-.05.49v1.28c0,.19.02.35.05.49.03.14.09.27.16.37.08.1.18.18.3.24.13.05.28.08.46.08s.33-.03.46-.08c.13-.05.23-.13.3-.23.08-.11.13-.23.17-.37.03-.14.05-.31.05-.49v-.57s-.07-.04-.12-.06ZM11.54,8.36v.32s.06.06.07.08c-.03,0-.04,0-.07-.01v.37c0,.21-.03.37-.1.47-.07.11-.19.16-.37.16s-.3-.05-.37-.16c-.07-.1-.1-.26-.1-.47v-1.54c0-.2.03-.35.1-.46.07-.1.19-.15.37-.15s.3.05.37.15c.07.1.1.25.1.46v.7c.07,0,.14,0,.21-.02.03.1.09.17-.21.1Z"/>
      <g>
        <path class="cls-1" d="M14.01,8.59c-.08-.03.07-.03.16-.06.02.03.05.06.09.09v-2.04h-.51v1.91s.05,0,.08,0c.02.08.06.14-.08.12v.17l-.07-.18s-.04,0-.07-.01c-.09-.02-.18-.03-.2.01-.02.02-.06.06.09.07.04,0,.09.02.08.03-.2.08.09.19.11.28-.1-.02-.18-.04-.24-.06l.46,1.2h.36v-1.43c-.09-.04-.17-.08-.25-.11Z"/>
        <path class="cls-1" d="M12.95,9.08c.05-.07-.11-.14-.15-.23,0-.03-.01-.07,0-.09.01-.02.06-.03.13-.02.04.01.04.05.06.08v-.25c-.06-.02-.1-.03-.12-.03-.06,0-.11,0-.15-.02-.02-.03-.07-.05-.03-.07.03-.02.1,0,.18,0,.04,0,.08.01.12.02v-.7l.28.74c.12.02.24,0,.36,0l-.77-1.91h-.38v3.55h.51v-1.1s-.01.05-.05.05Z"/>
      </g>
    </g>
  </g>
</svg>